<?xml version="1.0" standalone="no"?>
<svg viewBox="0 0 200 200" xmlns="http://www.w3.org/2000/svg">
  <path fill="#39B2AD" d="M40.3,-64C54.6,-61.5,70.3,-55.6,75.7,-44.3C81.1,-33.1,76.3,-16.5,76.1,-0.1C75.9,16.3,80.3,32.6,76.3,46.4C72.4,60.2,60.1,71.6,46,75.5C31.9,79.4,16,75.9,0.5,75.1C-15,74.3,-30,76.1,-41,70.4C-51.9,64.6,-58.8,51.3,-67.7,38.3C-76.7,25.3,-87.7,12.6,-87.9,-0.1C-88.1,-12.9,-77.6,-25.8,-69.1,-39.7C-60.7,-53.6,-54.5,-68.5,-43.3,-72.9C-32.1,-77.2,-16.1,-70.9,-1.5,-68.2C13,-65.5,26,-66.5,40.3,-64Z" transform="translate(100 100)" />
</svg>
